<svg width="1000" height="400" xmlns="http://www.w3.org/2000/svg">
 <defs>
  <filter id="glow">
   <feGaussianBlur result="coloredBlur" stdDeviation="3"/>
  </filter>
  <filter id="connectionGlow">
   <feGaussianBlur result="coloredBlur" stdDeviation="0.25"/>
  </filter>
 </defs>
 <g>
  <line id="svg_2" filter="url(#connectionGlow)"  opacity="0.5" stroke="#22498d" y2="46" x2="380" y1="276" x1="140"/>
  <line id="svg_3" filter="url(#connectionGlow)"  opacity="0.5" stroke="#22498d" y2="126" x2="650" y1="276" x1="140"/>
  <line id="svg_4" filter="url(#connectionGlow)"  opacity="0.5" stroke="#22498d" y2="366" x2="790" y1="276" x1="140"/>
  <line id="svg_5" filter="url(#connectionGlow)"  opacity="0.5" stroke="#22498d" y2="176" x2="300" y1="276" x1="140"/>
  <line id="svg_6" filter="url(#connectionGlow)"  opacity="0.5" stroke="#22498d" y2="106" x2="850" y1="276" x1="140"/>
  <line id="svg_7" filter="url(#connectionGlow)"  opacity="0.5" stroke="#22498d" y2="306" x2="450" y1="276" x1="140"/>
  <line id="svg_8" filter="url(#connectionGlow)"  opacity="0.5" stroke="#22498d" y2="76" x2="220" y1="276" x1="140"/>
  <line id="svg_9" filter="url(#connectionGlow)"  opacity="0.5" stroke="#22498d" y2="246" x2="580" y1="276" x1="140"/>
  <line id="svg_10" filter="url(#connectionGlow)" opacity="0.5" stroke="#22498d" y2="206" x2="750" y1="276" x1="140"/>
  <line id="svg_11" filter="url(#connectionGlow)" opacity="0.5" stroke="#22498d" y2="126" x2="650" y1="46" x1="380"/>
  <line id="svg_12" filter="url(#connectionGlow)" opacity="0.5" stroke="#22498d" y2="366" x2="790" y1="46" x1="380"/>
  <line id="svg_13" filter="url(#connectionGlow)" opacity="0.5" stroke="#22498d" y2="176" x2="300" y1="46" x1="380"/>
  <line id="svg_14" filter="url(#connectionGlow)" opacity="0.5" stroke="#22498d" y2="106" x2="850" y1="46" x1="380"/>
  <line id="svg_15" filter="url(#connectionGlow)" opacity="0.5" stroke="#22498d" y2="306" x2="450" y1="46" x1="380"/>
  <line id="svg_16" filter="url(#connectionGlow)" opacity="0.5" stroke="#22498d" y2="76" x2="220" y1="46" x1="380"/>
  <line id="svg_17" filter="url(#connectionGlow)" opacity="0.5" stroke="#22498d" y2="246" x2="580" y1="46" x1="380"/>
  <line id="svg_18" filter="url(#connectionGlow)" opacity="0.5" stroke="#22498d" y2="206" x2="750" y1="46" x1="380"/>
  <line id="svg_19" filter="url(#connectionGlow)" opacity="0.5" stroke="#22498d" y2="366" x2="790" y1="126" x1="650"/>
  <line id="svg_20" filter="url(#connectionGlow)" opacity="0.5" stroke="#22498d" y2="176" x2="300" y1="126" x1="650"/>
  <line id="svg_21" filter="url(#connectionGlow)" opacity="0.5" stroke="#22498d" y2="106" x2="850" y1="126" x1="650"/>
  <line id="svg_22" filter="url(#connectionGlow)" opacity="0.5" stroke="#22498d" y2="306" x2="450" y1="126" x1="650"/>
  <line id="svg_23" filter="url(#connectionGlow)" opacity="0.5" stroke="#22498d" y2="76" x2="220" y1="126" x1="650"/>
  <line id="svg_24" filter="url(#connectionGlow)" opacity="0.5" stroke="#22498d" y2="246" x2="580" y1="126" x1="650"/>
  <line id="svg_25" filter="url(#connectionGlow)" opacity="0.5" stroke="#22498d" y2="206" x2="750" y1="126" x1="650"/>
  <line id="svg_26" filter="url(#connectionGlow)" opacity="0.5" stroke="#22498d" y2="176" x2="300" y1="366" x1="790"/>
  <line id="svg_27" filter="url(#connectionGlow)" opacity="0.5" stroke="#22498d" y2="106" x2="850" y1="366" x1="790"/>
  <line id="svg_28" filter="url(#connectionGlow)" opacity="0.5" stroke="#22498d" y2="306" x2="450" y1="366" x1="790"/>
  <line id="svg_29" filter="url(#connectionGlow)" opacity="0.5" stroke="#22498d" y2="76" x2="220" y1="366" x1="790"/>
  <line id="svg_30" filter="url(#connectionGlow)" opacity="0.5" stroke="#22498d" y2="246" x2="580" y1="366" x1="790"/>
  <line id="svg_31" filter="url(#connectionGlow)" opacity="0.5" stroke="#22498d" y2="206" x2="750" y1="366" x1="790"/>
  <line id="svg_32" filter="url(#connectionGlow)" opacity="0.5" stroke="#22498d" y2="106" x2="850" y1="176" x1="300"/>
  <line id="svg_33" filter="url(#connectionGlow)" opacity="0.5" stroke="#22498d" y2="306" x2="450" y1="176" x1="300"/>
  <line id="svg_34" filter="url(#connectionGlow)" opacity="0.5" stroke="#22498d" y2="76" x2="220" y1="176" x1="300"/>
  <line id="svg_35" filter="url(#connectionGlow)" opacity="0.5" stroke="#22498d" y2="246" x2="580" y1="176" x1="300"/>
  <line id="svg_36" filter="url(#connectionGlow)" opacity="0.5" stroke="#22498d" y2="206" x2="750" y1="176" x1="300"/>
  <line id="svg_37" filter="url(#connectionGlow)" opacity="0.5" stroke="#22498d" y2="306" x2="450" y1="106" x1="850"/>
  <line id="svg_38" filter="url(#connectionGlow)" opacity="0.5" stroke="#22498d" y2="76" x2="220" y1="106" x1="850"/>
  <line id="svg_39" filter="url(#connectionGlow)" opacity="0.5" stroke="#22498d" y2="246" x2="580" y1="106" x1="850"/>
  <line id="svg_40" filter="url(#connectionGlow)" opacity="0.5" stroke="#22498d" y2="206" x2="750" y1="106" x1="850"/>
  <line id="svg_41" filter="url(#connectionGlow)" opacity="0.5" stroke="#22498d" y2="76" x2="220" y1="306" x1="450"/>
  <line id="svg_42" filter="url(#connectionGlow)" opacity="0.5" stroke="#22498d" y2="246" x2="580" y1="306" x1="450"/>
  <line id="svg_43" filter="url(#connectionGlow)" opacity="0.5" stroke="#22498d" y2="206" x2="750" y1="306" x1="450"/>
  <line id="svg_44" filter="url(#connectionGlow)" opacity="0.5" stroke="#22498d" y2="246" x2="580" y1="76" x1="220"/>
  <line id="svg_45" filter="url(#connectionGlow)" opacity="0.5" stroke="#22498d" y2="206" x2="750" y1="76" x1="220"/>
  <line id="svg_46" filter="url(#connectionGlow)" opacity="0.5" stroke="#22498d" y2="206" x2="750" y1="246" x1="580"/>
  <g id="svg_47">
   <rect id="svg_48" filter="url(#glow)" stroke="#82affdff" rx="3" height="30" width="40" y="256" x="120"/>
   <rect id="svg_49" opacity="0.8" fill="#568ae4" rx="1" height="4" width="30" y="261" x="125"/>
   <rect id="svg_50" opacity="0.6" fill="#568ae4" rx="1" height="4" width="30" y="268" x="125"/>
   <rect id="svg_51" opacity="0.8" fill="#568ae4" rx="1" height="4" width="30" y="275" x="125"/>
  </g>
  <g id="svg_54">
   <rect id="svg_55" filter="url(#glow)" stroke="#82affdff" rx="3" height="30" width="40" y="26" x="360"/>
   <rect id="svg_56" opacity="0.8" fill="#568ae4" rx="1" height="4" width="30" y="31" x="365"/>
   <rect id="svg_57" opacity="0.6" fill="#568ae4" rx="1" height="4" width="30" y="38" x="365"/>
   <rect id="svg_58" opacity="0.8" fill="#568ae4" rx="1" height="4" width="30" y="45" x="365"/>
  </g>
  <g id="svg_61">
   <rect id="svg_62" filter="url(#glow)" stroke="#82affdff" rx="3" height="30" width="40" y="106" x="630"/>
   <rect id="svg_63" opacity="0.8" fill="#568ae4" rx="1" height="4" width="30" y="111" x="635"/>
   <rect id="svg_64" opacity="0.6" fill="#568ae4" rx="1" height="4" width="30" y="118" x="635"/>
   <rect id="svg_65" opacity="0.8" fill="#568ae4" rx="1" height="4" width="30" y="125" x="635"/>
  </g>
  <g id="svg_68">
   <rect id="svg_69" filter="url(#glow)" stroke="#82affdff" rx="3" height="30" width="40" y="346" x="770"/>
   <rect id="svg_70" opacity="0.8" fill="#568ae4" rx="1" height="4" width="30" y="351" x="775"/>
   <rect id="svg_71" opacity="0.6" fill="#568ae4" rx="1" height="4" width="30" y="358" x="775"/>
   <rect id="svg_72" opacity="0.8" fill="#568ae4" rx="1" height="4" width="30" y="365" x="775"/>
  </g>
  <g id="svg_75">
   <rect id="svg_76" filter="url(#glow)" stroke="#82affdff" rx="3" height="30" width="40" y="156" x="280"/>
   <rect id="svg_77" opacity="0.8" fill="#568ae4" rx="1" height="4" width="30" y="161" x="285"/>
   <rect id="svg_78" opacity="0.6" fill="#568ae4" rx="1" height="4" width="30" y="168" x="285"/>
   <rect id="svg_79" opacity="0.8" fill="#568ae4" rx="1" height="4" width="30" y="175" x="285"/>
  </g>
  <g id="svg_82">
   <rect id="svg_83" filter="url(#glow)" stroke="#82affdff" rx="3" height="30" width="40" y="86" x="830"/>
   <rect id="svg_84" opacity="0.8" fill="#568ae4" rx="1" height="4" width="30" y="91" x="835"/>
   <rect id="svg_85" opacity="0.6" fill="#568ae4" rx="1" height="4" width="30" y="98" x="835"/>
   <rect id="svg_86" opacity="0.8" fill="#568ae4" rx="1" height="4" width="30" y="105" x="835"/>
  </g>
  <g id="svg_89">
   <rect id="svg_90" filter="url(#glow)" stroke="#82affdff" rx="3" height="30" width="40" y="286" x="430"/>
   <rect id="svg_91" opacity="0.8" fill="#568ae4" rx="1" height="4" width="30" y="291" x="435"/>
   <rect id="svg_92" opacity="0.6" fill="#568ae4" rx="1" height="4" width="30" y="298" x="435"/>
   <rect id="svg_93" opacity="0.8" fill="#568ae4" rx="1" height="4" width="30" y="305" x="435"/>
  </g>
  <g id="svg_96">
   <rect id="svg_97" filter="url(#glow)" stroke="#82affdff" rx="3" height="30" width="40" y="56" x="200"/>
   <rect id="svg_98" opacity="0.8" fill="#568ae4" rx="1" height="4" width="30" y="61" x="205"/>
   <rect id="svg_99" opacity="0.6" fill="#568ae4" rx="1" height="4" width="30" y="68" x="205"/>
   <rect id="svg_100" opacity="0.8" fill="#568ae4" rx="1" height="4" width="30" y="75" x="205"/>
  </g>
  <g id="svg_103">
   <rect id="svg_104" filter="url(#glow)" stroke="#82affdff" rx="3" height="30" width="40" y="226" x="560"/>
   <rect id="svg_105" opacity="0.8" fill="#568ae4" rx="1" height="4" width="30" y="231" x="565"/>
   <rect id="svg_106" opacity="0.6" fill="#568ae4" rx="1" height="4" width="30" y="238" x="565"/>
   <rect id="svg_107" opacity="0.8" fill="#568ae4" rx="1" height="4" width="30" y="245" x="565"/>
  </g>
  <g id="svg_110">
   <rect id="svg_111" filter="url(#glow)" stroke="#82affdff" rx="3" height="30" width="40" y="186" x="730"/>
   <rect id="svg_112" opacity="0.8" fill="#568ae4" rx="1" height="4" width="30" y="191" x="735"/>
   <rect id="svg_113" opacity="0.6" fill="#568ae4" rx="1" height="4" width="30" y="198" x="735"/>
   <rect id="svg_114" opacity="0.8" fill="#568ae4" rx="1" height="4" width="30" y="205" x="735"/>
  </g>
  <g id="svg_117">
   <rect id="svg_118" filter="url(#glow)" stroke="#82affdff" rx="3" height="30" width="40" y="86" x="280"/>
   <rect id="svg_119" opacity="0.8" fill="#568ae4" rx="1" height="4" width="30" y="91" x="285"/>
   <rect id="svg_120" opacity="0.6" fill="#568ae4" rx="1" height="4" width="30" y="98" x="285"/>
   <rect id="svg_121" opacity="0.8" fill="#568ae4" rx="1" height="4" width="30" y="105" x="285"/>
  </g>
  <g id="svg_124">
   <rect id="svg_125" filter="url(#glow)" stroke="#82affdff" rx="3" height="30" width="40" y="66" x="460"/>
   <rect id="svg_126" opacity="0.8" fill="#568ae4" rx="1" height="4" width="30" y="71" x="465"/>
   <rect id="svg_127" opacity="0.6" fill="#568ae4" rx="1" height="4" width="30" y="78" x="465"/>
   <rect id="svg_128" opacity="0.8" fill="#568ae4" rx="1" height="4" width="30" y="85" x="465"/>
  </g>
  <g id="svg_152">
   <rect id="svg_153" filter="url(#glow)" stroke="#82affdff" rx="3" height="30" width="40" y="226" x="230"/>
   <rect id="svg_154" opacity="0.8" fill="#568ae4" rx="1" height="4" width="30" y="231" x="235"/>
   <rect id="svg_155" opacity="0.6" fill="#568ae4" rx="1" height="4" width="30" y="238" x="235"/>
   <rect id="svg_156" opacity="0.8" fill="#568ae4" rx="1" height="4" width="30" y="245" x="235"/>
  </g>
  <g id="svg_159">
   <rect id="svg_160" filter="url(#glow)" stroke="#82affdff" rx="3" height="30" width="40" y="186" x="500"/>
   <rect id="svg_161" opacity="0.8" fill="#568ae4" rx="1" height="4" width="30" y="191" x="505"/>
   <rect id="svg_162" opacity="0.6" fill="#568ae4" rx="1" height="4" width="30" y="198" x="505"/>
   <rect id="svg_163" opacity="0.8" fill="#568ae4" rx="1" height="4" width="30" y="205" x="505"/>
  </g>
  <g id="svg_166">
   <rect id="svg_167" filter="url(#glow)" stroke="#82affdff" rx="3" height="30" width="40" y="206" x="680"/>
   <rect id="svg_168" opacity="0.8" fill="#568ae4" rx="1" height="4" width="30" y="211" x="685"/>
   <rect id="svg_169" opacity="0.6" fill="#568ae4" rx="1" height="4" width="30" y="218" x="685"/>
   <rect id="svg_170" opacity="0.8" fill="#568ae4" rx="1" height="4" width="30" y="225" x="685"/>
  </g>
 </g>
</svg>