<svg width="96" height="76" xmlns="http://www.w3.org/2000/svg" style="vector-effect: non-scaling-stroke; background:#111;">
  <defs>
  </defs>
  <g transform="translate(22 6) scale(0.8 1)">
    <line stroke-width="6" y2="8" x2="32" y1="8" x1="8" stroke="#114ccaff" fill="none" />
    <line stroke-width="6" y2="56" x2="8" y1="8" x1="8" stroke="#114ccaff" fill="none" />
    <line stroke-width="6" y2="32" x2="8" y1="32" x1="32" stroke="#114ccaff" fill="none" opacity="0.5" />

    <line stroke-width="6" y2="8" x2="56" y1="8" x1="32" stroke="#731ac7ff" fill="none" />
    <line transform="matrix(1, 0, 0, 1, 0, 0) matrix(1, 0, 0, 1, 0, 0) matrix(1, 0, 0, 1, 0, 0)"
      y2="56" x2="56" y1="56" x1="8" fill="none"    stroke="#731ac7ff" stroke-width="6" opacity="0.9" />
    <line fill="none" y2="56" x2="8" y1="8" x1="56" stroke="#731ac7ff" stroke-width="6" opacity="0.9" />

    <line stroke-width="6" y2="56" x2="56" y1="8" x1="56" stroke="#1638ceff" fill="none" opacity="0.4" />

    <g fill="rgba(88, 138, 196, 0.8)">
      <circle cx="8" cy="8"  r="3.5" />
      <circle cx="32" cy="8" r="3.5" />
      <circle cx="32" cy="32" r="3.5" />
      <circle cx="32" cy="56" r="3.5" />
      <circle cx="8" cy="32" r="3.5" />
      <circle cx="56" cy="32" r="3.5" />
      <circle cx="56" cy="8"  r="3.5" />
      <circle cx="8" cy="56" r="3.5" />
      <circle cx="56" cy="56" r="3.5" />
    </g>
  </g>
</svg>